<svg width="115" height="254" viewBox="0 0 115 254" fill="none" xmlns="http://www.w3.org/2000/svg">
<path d="M-10 0L-2.53091 79.0876L28.6271 6.21582L11.6761 83.7776L63.4732 24.2548L23.7614 92.6985L91.1271 52.3513L32.5418 104.977L108.882 87.7548L37.1579 119.411L115 127L37.1579 134.589L108.882 166.245L32.5418 149.023L91.1271 201.649L23.7614 161.302L63.4732 229.745L11.6761 170.222L28.6271 247.784L-2.53091 174.912L-10 254L-17.4691 174.912L-48.6271 247.784L-31.6761 170.222L-83.4732 229.745L-43.7613 161.302L-111.127 201.649L-52.5418 149.023L-128.882 166.245L-57.1579 134.589L-135 127L-57.1579 119.411L-128.882 87.7548L-52.5418 104.977L-111.127 52.3513L-43.7613 92.6985L-83.4732 24.2548L-31.6761 83.7776L-48.6271 6.21582L-17.4691 79.0876L-10 0Z" fill="#B24048"/>
</svg>
